<svg id="ecwc255c1dvo1" xmlns="http://www.w3.org/2000/svg" xmlns:xlink="http://www.w3.org/1999/xlink" viewBox="0 0 158.749990 105.833330" shape-rendering="geometricPrecision" text-rendering="geometricPrecision" width="158.749990" height="105.833330"><style><![CDATA[#ecwc255c1dvo3_to {animation: ecwc255c1dvo3_to__to 1000ms linear infinite normal forwards}@keyframes ecwc255c1dvo3_to__to { 0% {transform: translate(-191.235000px,80.669900px)} 100% {transform: translate(-184.235000px,80.669900px)} }#ecwc255c1dvo85_tr {animation: ecwc255c1dvo85_tr__tr 1000ms linear infinite normal forwards}@keyframes ecwc255c1dvo85_tr__tr { 0% {transform: translate(102.458644px,293.260873px) rotate(0deg);animation-timing-function: cubic-bezier(0.250000,1,0.250000,1)} 20% {transform: translate(102.458644px,293.260873px) rotate(5.111532deg);animation-timing-function: cubic-bezier(0.250000,1,0.250000,1)} 50% {transform: translate(102.458644px,293.260873px) rotate(0.387348deg)} 76% {transform: translate(102.458644px,293.260873px) rotate(-8.492108deg)} 100% {transform: translate(102.458644px,293.260873px) rotate(0deg)} }#ecwc255c1dvo85_ts {animation: ecwc255c1dvo85_ts__ts 1000ms linear infinite normal forwards}@keyframes ecwc255c1dvo85_ts__ts { 0% {transform: scale(0.200000,0.200000);animation-timing-function: cubic-bezier(0.420000,0,0.580000,1)} 20% {transform: scale(0.167989,0.167989);animation-timing-function: cubic-bezier(0.420000,0,0.580000,1)} 50% {transform: scale(0.200000,0.200000);animation-timing-function: cubic-bezier(0.420000,0,0.580000,1)} 76% {transform: scale(0.148529,0.148529)} 100% {transform: scale(0.200000,0.200000)} }#ecwc255c1dvo88_ts {animation: ecwc255c1dvo88_ts__ts 1000ms linear infinite normal forwards}@keyframes ecwc255c1dvo88_ts__ts { 0% {transform: translate(102.458641px,289.270004px) scale(1,1)} 20% {transform: translate(102.458641px,289.270004px) scale(0.681911,0.377384)} 50% {transform: translate(102.458641px,289.270004px) scale(1,1);animation-timing-function: cubic-bezier(0.550000,0.085000,0.680000,0.530000)} 76% {transform: translate(102.458641px,289.270004px) scale(0.679295,0.381003)} 100% {transform: translate(102.458641px,289.270004px) scale(1,1)} }]]></style><g id="ecwc255c1dvo2" transform="matrix(1 0 0 1 -21.23130000000000 -95.64770000000000)"><g id="ecwc255c1dvo3_to" transform="translate(-191.235000,80.669900)"><g id="ecwc255c1dvo3" transform="scale(0.970836,0.688540) translate(0,0)"><g id="ecwc255c1dvo4" transform="matrix(0.27295900000000 0 0 0.27098800000000 224.92099999999999 26.78970000000000)"><rect id="ecwc255c1dvo5" width="542.452000" height="530.330000" rx="7.074880" ry="2.020310" transform="matrix(1 0 0 1 -8.97905869043916 -0.14737100000002)" fill="rgb(102,0,128)" stroke="none" stroke-width="0.755906" stroke-linecap="round" stroke-linejoin="round"/></g><g id="ecwc255c1dvo6" transform="matrix(1 0 0 1 50.47140000000000 -47.08030000000000)"><g id="ecwc255c1dvo7" transform="matrix(0.08383700000000 0 0 0.08383700000000 199.86400000000000 161.03399999999999)"><path id="ecwc255c1dvo8" d="M-103.954580,-749.329130L-172.655580,-865.679130L-198.958580,-828.137130L-320.347580,-828.137130L-320.347580,-858.137130L-214.569580,-858.137130L-170.501580,-921.035130L-108.896580,-816.701130L-41.723585,-981.541130L-7.685585,-858.137130L62.991415,-858.137130L62.991415,-828.137130L-30.531585,-828.137130L-47.205585,-888.590130Z" fill="rgb(128,0,128)" stroke="none" stroke-width="1"/></g><g id="ecwc255c1dvo9" transform="matrix(0.08383700000000 0 0 0.08383700000000 231.47300000000001 161.03399999999999)"><path id="ecwc255c1dvo10" d="M-103.954580,-749.329130L-172.655580,-865.679130L-198.958580,-828.137130L-320.347580,-828.137130L-320.347580,-858.137130L-214.569580,-858.137130L-170.501580,-921.035130L-108.896580,-816.701130L-41.723585,-981.541130L-7.685585,-858.137130L62.991415,-858.137130L62.991415,-828.137130L-30.531585,-828.137130L-47.205585,-888.590130Z" fill="rgb(128,0,128)" stroke="none" stroke-width="1"/></g><g id="ecwc255c1dvo11" transform="matrix(0.08383700000000 0 0 0.08383700000000 263.08100000000002 161.03399999999999)"><path id="ecwc255c1dvo12" d="M-103.954580,-749.329130L-172.655580,-865.679130L-198.958580,-828.137130L-320.347580,-828.137130L-320.347580,-858.137130L-214.569580,-858.137130L-170.501580,-921.035130L-108.896580,-816.701130L-41.723585,-981.541130L-7.685585,-858.137130L62.991415,-858.137130L62.991415,-828.137130L-30.531585,-828.137130L-47.205585,-888.590130Z" fill="rgb(128,0,128)" stroke="none" stroke-width="1"/></g><g id="ecwc255c1dvo13" transform="matrix(0.08383700000000 0 0 0.08383700000000 294.69000000000000 161.03399999999999)"><path id="ecwc255c1dvo14" d="M-103.954580,-749.329130L-172.655580,-865.679130L-198.958580,-828.137130L-320.347580,-828.137130L-320.347580,-858.137130L-214.569580,-858.137130L-170.501580,-921.035130L-108.896580,-816.701130L-41.723585,-981.541130L-7.685585,-858.137130L62.991415,-858.137130L62.991415,-828.137130L-30.531585,-828.137130L-47.205585,-888.590130Z" fill="rgb(128,0,128)" stroke="none" stroke-width="1"/></g><g id="ecwc255c1dvo15" transform="matrix(0.08383700000000 0 0 0.08383700000000 318.48899999999998 161.03399999999999)"><path id="ecwc255c1dvo16" d="M-103.954580,-749.329130L-172.655580,-865.679130L-198.958580,-828.137130L-320.347580,-828.137130L-320.347580,-858.137130L-214.569580,-858.137130L-170.501580,-921.035130L-108.896580,-816.701130L-41.723585,-981.541130L-7.685585,-858.137130L18.808409,-858.137130L18.808409,-828.137130L-30.531585,-828.137130L-47.205585,-888.590130Z" fill="rgb(128,0,128)" stroke="none" stroke-width="1"/></g></g><g id="ecwc255c1dvo17" transform="matrix(1 0 0 1 50.47140000000000 -27.61240000000000)"><g id="ecwc255c1dvo18" transform="matrix(0.08383700000000 0 0 0.08383700000000 199.86400000000000 161.03399999999999)"><path id="ecwc255c1dvo19" d="M-103.954580,-749.329130L-172.655580,-865.679130L-198.958580,-828.137130L-320.347580,-828.137130L-320.347580,-858.137130L-214.569580,-858.137130L-170.501580,-921.035130L-108.896580,-816.701130L-41.723585,-981.541130L-7.685585,-858.137130L62.991415,-858.137130L62.991415,-828.137130L-30.531585,-828.137130L-47.205585,-888.590130Z" fill="rgb(128,0,128)" stroke="none" stroke-width="1"/></g><g id="ecwc255c1dvo20" transform="matrix(0.08383700000000 0 0 0.08383700000000 231.47300000000001 161.03399999999999)"><path id="ecwc255c1dvo21" d="M-103.954580,-749.329130L-172.655580,-865.679130L-198.958580,-828.137130L-320.347580,-828.137130L-320.347580,-858.137130L-214.569580,-858.137130L-170.501580,-921.035130L-108.896580,-816.701130L-41.723585,-981.541130L-7.685585,-858.137130L62.991415,-858.137130L62.991415,-828.137130L-30.531585,-828.137130L-47.205585,-888.590130Z" fill="rgb(128,0,128)" stroke="none" stroke-width="1"/></g><g id="ecwc255c1dvo22" transform="matrix(0.08383700000000 0 0 0.08383700000000 263.08100000000002 161.03399999999999)"><path id="ecwc255c1dvo23" d="M-103.954580,-749.329130L-172.655580,-865.679130L-198.958580,-828.137130L-320.347580,-828.137130L-320.347580,-858.137130L-214.569580,-858.137130L-170.501580,-921.035130L-108.896580,-816.701130L-41.723585,-981.541130L-7.685585,-858.137130L62.991415,-858.137130L62.991415,-828.137130L-30.531585,-828.137130L-47.205585,-888.590130Z" fill="rgb(128,0,128)" stroke="none" stroke-width="1"/></g><g id="ecwc255c1dvo24" transform="matrix(0.08383700000000 0 0 0.08383700000000 294.69000000000000 161.03399999999999)"><path id="ecwc255c1dvo25" d="M-103.954580,-749.329130L-172.655580,-865.679130L-198.958580,-828.137130L-320.347580,-828.137130L-320.347580,-858.137130L-214.569580,-858.137130L-170.501580,-921.035130L-108.896580,-816.701130L-41.723585,-981.541130L-7.685585,-858.137130L62.991415,-858.137130L62.991415,-828.137130L-30.531585,-828.137130L-47.205585,-888.590130Z" fill="rgb(128,0,128)" stroke="none" stroke-width="1"/></g><g id="ecwc255c1dvo26" transform="matrix(0.08383700000000 0 0 0.08383700000000 318.48899999999998 161.03399999999999)"><path id="ecwc255c1dvo27" d="M-103.954580,-749.329130L-172.655580,-865.679130L-198.958580,-828.137130L-320.347580,-828.137130L-320.347580,-858.137130L-214.569580,-858.137130L-170.501580,-921.035130L-108.896580,-816.701130L-41.723585,-981.541130L-7.685585,-858.137130L18.808409,-858.137130L18.808409,-828.137130L-30.531585,-828.137130L-47.205585,-888.590130Z" fill="rgb(128,0,128)" stroke="none" stroke-width="1"/></g></g><g id="ecwc255c1dvo28" transform="matrix(1 0 0 1 50.47140000000000 -8.14439000000000)"><g id="ecwc255c1dvo29" transform="matrix(0.08383700000000 0 0 0.08383700000000 199.86400000000000 161.03399999999999)"><path id="ecwc255c1dvo30" d="M-103.954580,-749.329130L-172.655580,-865.679130L-198.958580,-828.137130L-320.347580,-828.137130L-320.347580,-858.137130L-214.569580,-858.137130L-170.501580,-921.035130L-108.896580,-816.701130L-41.723585,-981.541130L-7.685585,-858.137130L62.991415,-858.137130L62.991415,-828.137130L-30.531585,-828.137130L-47.205585,-888.590130Z" fill="rgb(128,0,128)" stroke="none" stroke-width="1"/></g><g id="ecwc255c1dvo31" transform="matrix(0.08383700000000 0 0 0.08383700000000 231.47300000000001 161.03399999999999)"><path id="ecwc255c1dvo32" d="M-103.954580,-749.329130L-172.655580,-865.679130L-198.958580,-828.137130L-320.347580,-828.137130L-320.347580,-858.137130L-214.569580,-858.137130L-170.501580,-921.035130L-108.896580,-816.701130L-41.723585,-981.541130L-7.685585,-858.137130L62.991415,-858.137130L62.991415,-828.137130L-30.531585,-828.137130L-47.205585,-888.590130Z" fill="rgb(128,0,128)" stroke="none" stroke-width="1"/></g><g id="ecwc255c1dvo33" transform="matrix(0.08383700000000 0 0 0.08383700000000 263.08100000000002 161.03399999999999)"><path id="ecwc255c1dvo34" d="M-103.954580,-749.329130L-172.655580,-865.679130L-198.958580,-828.137130L-320.347580,-828.137130L-320.347580,-858.137130L-214.569580,-858.137130L-170.501580,-921.035130L-108.896580,-816.701130L-41.723585,-981.541130L-7.685585,-858.137130L62.991415,-858.137130L62.991415,-828.137130L-30.531585,-828.137130L-47.205585,-888.590130Z" fill="rgb(128,0,128)" stroke="none" stroke-width="1"/></g><g id="ecwc255c1dvo35" transform="matrix(0.08383700000000 0 0 0.08383700000000 294.69000000000000 161.03399999999999)"><path id="ecwc255c1dvo36" d="M-103.954580,-749.329130L-172.655580,-865.679130L-198.958580,-828.137130L-320.347580,-828.137130L-320.347580,-858.137130L-214.569580,-858.137130L-170.501580,-921.035130L-108.896580,-816.701130L-41.723585,-981.541130L-7.685585,-858.137130L62.991415,-858.137130L62.991415,-828.137130L-30.531585,-828.137130L-47.205585,-888.590130Z" fill="rgb(128,0,128)" stroke="none" stroke-width="1"/></g><g id="ecwc255c1dvo37" transform="matrix(0.08383700000000 0 0 0.08383700000000 318.48899999999998 161.03399999999999)"><path id="ecwc255c1dvo38" d="M-103.954580,-749.329130L-172.655580,-865.679130L-198.958580,-828.137130L-320.347580,-828.137130L-320.347580,-858.137130L-214.569580,-858.137130L-170.501580,-921.035130L-108.896580,-816.701130L-41.723585,-981.541130L-7.685585,-858.137130L18.808409,-858.137130L18.808409,-828.137130L-30.531585,-828.137130L-47.205585,-888.590130Z" fill="rgb(128,0,128)" stroke="none" stroke-width="1"/></g></g><g id="ecwc255c1dvo39" transform="matrix(1 0 0 1 50.47140000000000 11.32360000000000)"><g id="ecwc255c1dvo40" transform="matrix(0.08383700000000 0 0 0.08383700000000 199.86400000000000 161.03399999999999)"><path id="ecwc255c1dvo41" d="M-103.954580,-749.329130L-172.655580,-865.679130L-198.958580,-828.137130L-320.347580,-828.137130L-320.347580,-858.137130L-214.569580,-858.137130L-170.501580,-921.035130L-108.896580,-816.701130L-41.723585,-981.541130L-7.685585,-858.137130L62.991415,-858.137130L62.991415,-828.137130L-30.531585,-828.137130L-47.205585,-888.590130Z" fill="rgb(128,0,128)" stroke="none" stroke-width="1"/></g><g id="ecwc255c1dvo42" transform="matrix(0.08383700000000 0 0 0.08383700000000 231.47300000000001 161.03399999999999)"><path id="ecwc255c1dvo43" d="M-103.954580,-749.329130L-172.655580,-865.679130L-198.958580,-828.137130L-320.347580,-828.137130L-320.347580,-858.137130L-214.569580,-858.137130L-170.501580,-921.035130L-108.896580,-816.701130L-41.723585,-981.541130L-7.685585,-858.137130L62.991415,-858.137130L62.991415,-828.137130L-30.531585,-828.137130L-47.205585,-888.590130Z" fill="rgb(128,0,128)" stroke="none" stroke-width="1"/></g><g id="ecwc255c1dvo44" transform="matrix(0.08383700000000 0 0 0.08383700000000 263.08100000000002 161.03399999999999)"><path id="ecwc255c1dvo45" d="M-103.954580,-749.329130L-172.655580,-865.679130L-198.958580,-828.137130L-320.347580,-828.137130L-320.347580,-858.137130L-214.569580,-858.137130L-170.501580,-921.035130L-108.896580,-816.701130L-41.723585,-981.541130L-7.685585,-858.137130L62.991415,-858.137130L62.991415,-828.137130L-30.531585,-828.137130L-47.205585,-888.590130Z" fill="rgb(128,0,128)" stroke="none" stroke-width="1"/></g><g id="ecwc255c1dvo46" transform="matrix(0.08383700000000 0 0 0.08383700000000 294.69000000000000 161.03399999999999)"><path id="ecwc255c1dvo47" d="M-103.954580,-749.329130L-172.655580,-865.679130L-198.958580,-828.137130L-320.347580,-828.137130L-320.347580,-858.137130L-214.569580,-858.137130L-170.501580,-921.035130L-108.896580,-816.701130L-41.723585,-981.541130L-7.685585,-858.137130L62.991415,-858.137130L62.991415,-828.137130L-30.531585,-828.137130L-47.205585,-888.590130Z" fill="rgb(128,0,128)" stroke="none" stroke-width="1"/></g><g id="ecwc255c1dvo48" transform="matrix(0.08383700000000 0 0 0.08383700000000 318.48899999999998 161.03399999999999)"><path id="ecwc255c1dvo49" d="M-103.954580,-749.329130L-172.655580,-865.679130L-198.958580,-828.137130L-320.347580,-828.137130L-320.347580,-858.137130L-214.569580,-858.137130L-170.501580,-921.035130L-108.896580,-816.701130L-41.723585,-981.541130L-7.685585,-858.137130L18.808409,-858.137130L18.808409,-828.137130L-30.531585,-828.137130L-47.205585,-888.590130Z" fill="rgb(128,0,128)" stroke="none" stroke-width="1"/></g></g><g id="ecwc255c1dvo50" transform="matrix(1 0 0 1 50.47140000000000 30.79150000000000)"><g id="ecwc255c1dvo51" transform="matrix(0.08383700000000 0 0 0.08383700000000 199.86400000000000 161.03399999999999)"><path id="ecwc255c1dvo52" d="M-103.954580,-749.329130L-172.655580,-865.679130L-198.958580,-828.137130L-320.347580,-828.137130L-320.347580,-858.137130L-214.569580,-858.137130L-170.501580,-921.035130L-108.896580,-816.701130L-41.723585,-981.541130L-7.685585,-858.137130L62.991415,-858.137130L62.991415,-828.137130L-30.531585,-828.137130L-47.205585,-888.590130Z" fill="rgb(128,0,128)" stroke="none" stroke-width="1"/></g><g id="ecwc255c1dvo53" transform="matrix(0.08383700000000 0 0 0.08383700000000 231.47300000000001 161.03399999999999)"><path id="ecwc255c1dvo54" d="M-103.954580,-749.329130L-172.655580,-865.679130L-198.958580,-828.137130L-320.347580,-828.137130L-320.347580,-858.137130L-214.569580,-858.137130L-170.501580,-921.035130L-108.896580,-816.701130L-41.723585,-981.541130L-7.685585,-858.137130L62.991415,-858.137130L62.991415,-828.137130L-30.531585,-828.137130L-47.205585,-888.590130Z" fill="rgb(128,0,128)" stroke="none" stroke-width="1"/></g><g id="ecwc255c1dvo55" transform="matrix(0.08383700000000 0 0 0.08383700000000 263.08100000000002 161.03399999999999)"><path id="ecwc255c1dvo56" d="M-103.954580,-749.329130L-172.655580,-865.679130L-198.958580,-828.137130L-320.347580,-828.137130L-320.347580,-858.137130L-214.569580,-858.137130L-170.501580,-921.035130L-108.896580,-816.701130L-41.723585,-981.541130L-7.685585,-858.137130L62.991415,-858.137130L62.991415,-828.137130L-30.531585,-828.137130L-47.205585,-888.590130Z" fill="rgb(128,0,128)" stroke="none" stroke-width="1"/></g><g id="ecwc255c1dvo57" transform="matrix(0.08383700000000 0 0 0.08383700000000 294.69000000000000 161.03399999999999)"><path id="ecwc255c1dvo58" d="M-103.954580,-749.329130L-172.655580,-865.679130L-198.958580,-828.137130L-320.347580,-828.137130L-320.347580,-858.137130L-214.569580,-858.137130L-170.501580,-921.035130L-108.896580,-816.701130L-41.723585,-981.541130L-7.685585,-858.137130L62.991415,-858.137130L62.991415,-828.137130L-30.531585,-828.137130L-47.205585,-888.590130Z" fill="rgb(128,0,128)" stroke="none" stroke-width="1"/></g><g id="ecwc255c1dvo59" transform="matrix(0.08383700000000 0 0 0.08383700000000 318.48899999999998 161.03399999999999)"><path id="ecwc255c1dvo60" d="M-103.954580,-749.329130L-172.655580,-865.679130L-198.958580,-828.137130L-320.347580,-828.137130L-320.347580,-858.137130L-214.569580,-858.137130L-170.501580,-921.035130L-108.896580,-816.701130L-41.723585,-981.541130L-7.685585,-858.137130L18.808409,-858.137130L18.808409,-828.137130L-30.531585,-828.137130L-47.205585,-888.590130Z" fill="rgb(128,0,128)" stroke="none" stroke-width="1"/></g></g><g id="ecwc255c1dvo61" transform="matrix(1 0 0 1 50.47140000000000 50.25950000000000)"><g id="ecwc255c1dvo62" transform="matrix(0.08383700000000 0 0 0.08383700000000 199.86400000000000 161.03399999999999)"><path id="ecwc255c1dvo63" d="M-103.954580,-749.329130L-172.655580,-865.679130L-198.958580,-828.137130L-320.347580,-828.137130L-320.347580,-858.137130L-214.569580,-858.137130L-170.501580,-921.035130L-108.896580,-816.701130L-41.723585,-981.541130L-7.685585,-858.137130L62.991415,-858.137130L62.991415,-828.137130L-30.531585,-828.137130L-47.205585,-888.590130Z" fill="rgb(128,0,128)" stroke="none" stroke-width="1"/></g><g id="ecwc255c1dvo64" transform="matrix(0.08383700000000 0 0 0.08383700000000 231.47300000000001 161.03399999999999)"><path id="ecwc255c1dvo65" d="M-103.954580,-749.329130L-172.655580,-865.679130L-198.958580,-828.137130L-320.347580,-828.137130L-320.347580,-858.137130L-214.569580,-858.137130L-170.501580,-921.035130L-108.896580,-816.701130L-41.723585,-981.541130L-7.685585,-858.137130L62.991415,-858.137130L62.991415,-828.137130L-30.531585,-828.137130L-47.205585,-888.590130Z" fill="rgb(128,0,128)" stroke="none" stroke-width="1"/></g><g id="ecwc255c1dvo66" transform="matrix(0.08383700000000 0 0 0.08383700000000 263.08100000000002 161.03399999999999)"><path id="ecwc255c1dvo67" d="M-103.954580,-749.329130L-172.655580,-865.679130L-198.958580,-828.137130L-320.347580,-828.137130L-320.347580,-858.137130L-214.569580,-858.137130L-170.501580,-921.035130L-108.896580,-816.701130L-41.723585,-981.541130L-7.685585,-858.137130L62.991415,-858.137130L62.991415,-828.137130L-30.531585,-828.137130L-47.205585,-888.590130Z" fill="rgb(128,0,128)" stroke="none" stroke-width="1"/></g><g id="ecwc255c1dvo68" transform="matrix(0.08383700000000 0 0 0.08383700000000 294.69000000000000 161.03399999999999)"><path id="ecwc255c1dvo69" d="M-103.954580,-749.329130L-172.655580,-865.679130L-198.958580,-828.137130L-320.347580,-828.137130L-320.347580,-858.137130L-214.569580,-858.137130L-170.501580,-921.035130L-108.896580,-816.701130L-41.723585,-981.541130L-7.685585,-858.137130L62.991415,-858.137130L62.991415,-828.137130L-30.531585,-828.137130L-47.205585,-888.590130Z" fill="rgb(128,0,128)" stroke="none" stroke-width="1"/></g><g id="ecwc255c1dvo70" transform="matrix(0.08383700000000 0 0 0.08383700000000 318.48899999999998 161.03399999999999)"><path id="ecwc255c1dvo71" d="M-103.954580,-749.329130L-172.655580,-865.679130L-198.958580,-828.137130L-320.347580,-828.137130L-320.347580,-858.137130L-214.569580,-858.137130L-170.501580,-921.035130L-108.896580,-816.701130L-41.723585,-981.541130L-7.685585,-858.137130L18.808409,-858.137130L18.808409,-828.137130L-30.531585,-828.137130L-47.205585,-888.590130Z" fill="rgb(128,0,128)" stroke="none" stroke-width="1"/></g></g><g id="ecwc255c1dvo72" transform="matrix(1 0 0 1 50.47140000000000 69.72750000000001)"><g id="ecwc255c1dvo73" transform="matrix(0.08383700000000 0 0 0.08383700000000 199.86400000000000 161.03399999999999)"><path id="ecwc255c1dvo74" d="M-103.954580,-749.329130L-172.655580,-865.679130L-198.958580,-828.137130L-320.347580,-828.137130L-320.347580,-858.137130L-214.569580,-858.137130L-170.501580,-921.035130L-108.896580,-816.701130L-41.723585,-981.541130L-7.685585,-858.137130L62.991415,-858.137130L62.991415,-828.137130L-30.531585,-828.137130L-47.205585,-888.590130Z" fill="rgb(128,0,128)" stroke="none" stroke-width="1"/></g><g id="ecwc255c1dvo75" transform="matrix(0.08383700000000 0 0 0.08383700000000 231.47300000000001 161.03399999999999)"><path id="ecwc255c1dvo76" d="M-103.954580,-749.329130L-172.655580,-865.679130L-198.958580,-828.137130L-320.347580,-828.137130L-320.347580,-858.137130L-214.569580,-858.137130L-170.501580,-921.035130L-108.896580,-816.701130L-41.723585,-981.541130L-7.685585,-858.137130L62.991415,-858.137130L62.991415,-828.137130L-30.531585,-828.137130L-47.205585,-888.590130Z" fill="rgb(128,0,128)" stroke="none" stroke-width="1"/></g><g id="ecwc255c1dvo77" transform="matrix(0.08383700000000 0 0 0.08383700000000 263.08100000000002 161.03399999999999)"><path id="ecwc255c1dvo78" d="M-103.954580,-749.329130L-172.655580,-865.679130L-198.958580,-828.137130L-320.347580,-828.137130L-320.347580,-858.137130L-214.569580,-858.137130L-170.501580,-921.035130L-108.896580,-816.701130L-41.723585,-981.541130L-7.685585,-858.137130L62.991415,-858.137130L62.991415,-828.137130L-30.531585,-828.137130L-47.205585,-888.590130Z" fill="rgb(128,0,128)" stroke="none" stroke-width="1"/></g><g id="ecwc255c1dvo79" transform="matrix(0.08383700000000 0 0 0.08383700000000 294.69000000000000 161.03399999999999)"><path id="ecwc255c1dvo80" d="M-103.954580,-749.329130L-172.655580,-865.679130L-198.958580,-828.137130L-320.347580,-828.137130L-320.347580,-858.137130L-214.569580,-858.137130L-170.501580,-921.035130L-108.896580,-816.701130L-41.723585,-981.541130L-7.685585,-858.137130L62.991415,-858.137130L62.991415,-828.137130L-30.531585,-828.137130L-47.205585,-888.590130Z" fill="rgb(128,0,128)" stroke="none" stroke-width="1"/></g><g id="ecwc255c1dvo81" transform="matrix(0.08383700000000 0 0 0.08383700000000 318.48899999999998 161.03399999999999)"><path id="ecwc255c1dvo82" d="M-103.954580,-749.329130L-172.655580,-865.679130L-198.958580,-828.137130L-320.347580,-828.137130L-320.347580,-858.137130L-214.569580,-858.137130L-170.501580,-921.035130L-108.896580,-816.701130L-41.723585,-981.541130L-7.685585,-858.137130L18.808409,-858.137130L18.808409,-828.137130L-30.531585,-828.137130L-47.205585,-888.590130Z" fill="rgb(128,0,128)" stroke="none" stroke-width="1"/></g></g></g></g><rect id="ecwc255c1dvo83" width="146.830000" height="93.912900" rx="1.777900" ry="0.466011" transform="matrix(1 0 0 1 27.19150000000000 101.60800000000000)" fill="none" stroke="rgb(102,102,102)" stroke-width="11.920400" stroke-linecap="round" stroke-linejoin="round"/><g id="ecwc255c1dvo84" transform="matrix(0.74459500000000 0 0 0.74459500000000 22.99050000000000 -69.79630000000000)"><g id="ecwc255c1dvo85_tr" transform="translate(102.458644,293.260873) rotate(0)"><g id="ecwc255c1dvo85_ts" transform="scale(0.200000,0.200000)"><g id="ecwc255c1dvo85" transform="translate(-250.001000,-277.244531)"><path id="ecwc255c1dvo86" d="M60.410000,219.205000C60.410000,161.404000,107.267000,114.547000,165.068000,114.547000C200.034000,114.547000,230.995000,131.694000,250.001000,158.039000C269.007000,131.695000,299.968000,114.547000,334.934000,114.547000C392.735000,114.547000,439.592000,161.404000,439.592000,219.205000C439.591000,342.437000,250,451,250,451C250,451,60.410000,342.437000,60.410000,219.205000Z" fill="rgb(255,88,62)" stroke="none" stroke-width="1"/><path id="ecwc255c1dvo87" d="M250,158.039000C269.006000,131.695000,299.967000,114.547000,334.933000,114.547000C392.734000,114.547000,439.591000,161.404000,439.591000,219.205000C439.591000,342.437000,250,451,250,451Z" fill="rgb(249,40,20)" stroke="none" stroke-width="1"/></g></g></g><g id="ecwc255c1dvo88_ts" transform="translate(102.458641,289.270004) scale(1,1)"><path id="ecwc255c1dvo88" d="M106.534860,308.412670L95.207971,289.229780L90.871335,295.419410L70.857654,295.419410L70.857654,290.473240L88.297514,290.473240L95.563106,280.103110L105.720060,297.304890L116.795030,270.127350L122.406950,290.473240L134.059630,290.473240L134.059630,295.419410L118.640280,295.419410L115.891200,285.452390Z" transform="translate(-102.458641,-289.270004)" fill="rgb(255,255,255)" stroke="none" stroke-width="0.164872"/></g></g></g></svg>